<svg width="108" height="30" viewBox="0 0 108 30" fill="none" xmlns="http://www.w3.org/2000/svg">
<path fill-rule="evenodd" clip-rule="evenodd" d="M1.30178 23.4335H4.97686V20.6922H2.61683V3.02792H16.3563C20.0757 3.02792 22.6748 5.2144 24.1404 8.25402C24.9548 9.9893 25.4392 11.8755 25.5662 13.8065C25.7162 15.7768 25.5241 17.7594 24.9994 19.6573C23.981 23.2377 21.6741 26.1701 18.1319 26.8228C16.7631 26.9996 15.3824 27.051 14.0052 26.9766C13.2657 26.9486 12.4997 26.9486 12.1322 26.9486V29.7039H13.9653C15.5039 29.79 17.0468 29.7276 18.5746 29.5174C23.246 28.6642 26.217 24.9486 27.5011 20.4312C28.129 18.214 28.3661 15.8945 28.2007 13.5873C28.046 11.2931 27.4685 9.05246 26.5004 6.99062C24.6097 3.05589 21.2535 0.258698 16.3829 0.258698H0V23.4335H1.30178ZM15.7054 6.60367H6.40703L6.39374 9.37756H6.40703V20.6782H6.39374V23.4242L6.40703 23.4242V26.9719L0.141682 26.9346L0.150538 29.6806L7.71766 29.7085L9.02386 29.6945V23.4321C11.8239 23.4377 14.4842 23.4327 15.0767 23.4008H15.2095L15.2199 23.4003C17.0309 23.3114 22.0638 23.0641 22.0638 15.1538C22.046 7.06987 15.7276 6.60367 15.7054 6.60367ZM9.02386 20.6782H14.9438H15.0811C16.2323 20.6223 19.4602 20.4638 19.4513 15.1771C19.4513 10.0163 16.0198 9.4335 15.5593 9.37756H9.02386V20.6782Z" fill="url(#paint0_linear_934_418)"/>
<path fill-rule="evenodd" clip-rule="evenodd" d="M107.999 19.0932V13.6386C108.013 13.0685 107.912 12.5017 107.702 11.976C107.492 11.4502 107.178 10.9776 106.781 10.5897C106.384 10.1902 105.916 9.87708 105.404 9.66828C104.892 9.45949 104.346 9.35911 103.797 9.37288H97.1549C96.0463 9.34609 94.9729 9.78373 94.1706 10.5897C93.7735 10.9776 93.4596 11.4502 93.2496 11.976C93.0397 12.5017 92.9385 13.0685 92.9529 13.6386V19.0932C92.9382 19.6633 93.0392 20.2302 93.2492 20.756C93.4592 21.2818 93.7733 21.7543 94.1706 22.1421C94.9729 22.948 96.0463 23.3857 97.1549 23.3589H103.797C104.346 23.3727 104.892 23.2723 105.404 23.0635C105.916 22.8547 106.384 22.5416 106.781 22.1421C107.178 21.7543 107.492 21.2818 107.702 20.756C107.912 20.2302 108.013 19.6633 107.999 19.0932ZM105.528 19.0932C105.528 20.226 104.828 20.7621 103.797 20.7621H97.1549C96.1232 20.7621 95.4236 20.226 95.4236 19.0932V13.6433C95.4236 12.5104 96.1232 11.9743 97.1549 11.9743H103.797C104.828 11.9743 105.528 12.5104 105.528 13.6433V19.0932Z" fill="#01020C"/>
<path fill-rule="evenodd" clip-rule="evenodd" d="M75.0425 9.35423V11.9556H85.1511C86.1784 11.9556 86.8293 12.5151 86.8293 13.6246V19.0698C86.8293 20.1794 86.1784 20.7388 85.1511 20.7388H77.5353V14.8647H75.0646V23.3402H85.1511C85.6976 23.3546 86.2412 23.2545 86.7505 23.0456C87.2598 22.8367 87.7246 22.5232 88.1178 22.1234C88.5122 21.734 88.8235 21.2609 89.0311 20.7352C89.2387 20.2096 89.3379 19.6435 89.3221 19.0745V13.62C89.3379 13.0509 89.2387 12.4849 89.0311 11.9592C88.8235 11.4336 88.5122 10.9604 88.1178 10.571C87.7246 10.1712 87.2598 9.85779 86.7505 9.6489C86.2412 9.44001 85.6976 9.33984 85.1511 9.35423H75.0425Z" fill="#01020C"/>
<path fill-rule="evenodd" clip-rule="evenodd" d="M71.3895 23.3402V13.5034C71.4113 12.4235 71.0516 11.3735 70.38 10.557C70.0628 10.1645 69.6655 9.85238 69.2178 9.64411C68.77 9.43584 68.2834 9.33674 67.7941 9.35424H60.103C59.6186 9.33864 59.137 9.43875 58.6946 9.64706C58.2521 9.85537 57.8602 10.1665 57.5482 10.557C56.8735 11.3719 56.5119 12.4226 56.5342 13.5034V23.3402H59.0094V13.55C59.0094 12.7901 59.2573 11.9929 60.103 11.9929H67.7941C68.6487 11.9929 68.9188 12.7715 68.9188 13.55V16.0675H61.8874V18.6689H68.9188V23.3402H71.3895Z" fill="#01020C"/>
<path fill-rule="evenodd" clip-rule="evenodd" d="M37.6851 9.35423V11.9416C42.1129 11.9416 44.8802 11.9416 49.2992 11.9416C50.2822 11.9416 50.4239 13.1491 50.4239 13.937C50.4239 14.7249 50.2733 15.8997 49.2992 15.8997H37.6851V23.3402H40.1558V18.5337H49.2859C49.8065 18.5508 50.3229 18.4295 50.7872 18.181C51.2516 17.9325 51.6489 17.5648 51.9426 17.1118C52.592 16.2097 52.9294 15.1011 52.899 13.9696C52.9253 12.8251 52.587 11.7042 51.9382 10.7855C51.644 10.3402 51.2491 9.97912 50.7891 9.73493C50.3291 9.49073 49.8186 9.37111 49.3036 9.38687L37.6851 9.35423Z" fill="#01020C"/>
<defs>
<linearGradient id="paint0_linear_934_418" x1="14.1259" y1="0.258698" x2="14.1259" y2="29.7413" gradientUnits="userSpaceOnUse">
<stop stop-color="#78E1FB"/>
<stop offset="1" stop-color="#70FFBD"/>
</linearGradient>
</defs>
</svg>
